<svg xmlns="http://www.w3.org/2000/svg" viewBox="0 0 490.667 490.667" width="512" height="512"><path d="M245.333 0C110.059 0 0 110.059 0 245.333s110.059 245.333 245.333 245.333 245.333-110.059 245.333-245.333S380.608 0 245.333 0zm140.886 268.885c-18.283 18.261-50.133 18.261-68.416 0l-19.136-19.136v123.584c0 29.397-23.915 53.333-53.333 53.333S192 402.731 192 373.333V249.749l-19.115 19.115c-18.283 18.261-50.133 18.261-68.416 0-9.152-9.131-14.165-21.291-14.165-34.219s5.013-25.067 14.165-34.219L222.72 82.176c12.459-12.48 32.789-12.48 45.248 0l118.251 118.251c9.152 9.131 14.165 21.291 14.165 34.219 0 12.927-5.035 25.087-14.165 34.239z" data-original="#000000" class="active-path" data-old_color="#000000" fill="#C70101"/></svg>